<?xml version="1.0" encoding="UTF-8"?>
<svg id="Logo" xmlns="http://www.w3.org/2000/svg" viewBox="0 0 841.89 595.28">
  <defs>
    <style>
      .cls-1 {
        fill: #fff;
      }
    </style>
  </defs>
  <path class="cls-1" d="M660.18,437.39c-9.27-40.72-20.05-88.7-29.66-135.84l-1.22.04c1.04-7.49,2.1-14.47,3.17-20.8l.57.43-.32-1.88c.74-4.26,1.48-8.21,2.24-11.81l.11-.54.07-.54c1.07-8.25-2.04-16.35-8.32-21.77l-16.19-95.09c-1.05-6.2-4.63-11.58-9.9-14.94l-3.07-2.37h1.4l-91.17-75.45c-5.26-4.34-11.23-7.65-17.76-9.86l-42.23-17.08-10.66-2.81c-5.38-1.42-10.86-2.14-16.28-2.14s-10.9.72-16.29,2.13l-10.67,2.8-42.28,17.1c-6.5,2.19-12.46,5.51-17.75,9.87l-60.83,50.34-30.28,25.09h1.37l-3.07,2.37c-5.26,3.36-8.84,8.73-9.9,14.94l-16.19,95.1c-6.28,5.42-9.39,13.52-8.32,21.77l.07.54.11.54c.75,3.59,1.5,7.55,2.24,11.81l-.32,1.88.57-.43c1.08,6.33,2.13,13.31,3.17,20.8l-1.22-.04c-9.61,47.14-20.38,95.12-29.66,135.84l-6.04,26.53,25.6-10.41c9.9-4.02,15.96-8.61,22.26-21.1.8-.23,1.59-.48,2.37-.74,2.99,36.37,5.32,69.5,6.76,89.89l1.92,27.13,21.47-17.38c4.64-3.75,8.08-7.32,10.64-12.14,6.47-3.43,12.17-9.34,16.78-16.95l1.38-.57c7.26-3,18.65-10.85,26.91-31.26,8.91,10.22,20.25,19.65,32.89,30.13,7.23,6,14.7,12.21,22.65,19.29l9.28,8.27c5.7,15.05,13.33,21.52,19.65,24.2,2.47,3.35,5.33,6.15,8.61,8.15.38.55.78,1.07,1.2,1.58l14.38,11.79,14.62-11.8c.41-.5.81-1.02,1.19-1.57,3.28-2,6.14-4.8,8.61-8.14,6.16-2.61,13.57-8.84,19.22-23.09l10.54-9.39c7.95-7.08,15.42-13.28,22.65-19.28,12.63-10.49,23.98-19.92,32.89-30.13,8.26,20.4,19.65,28.26,26.91,31.26l1.38.57c4.62,7.61,10.31,13.53,16.78,16.95,2.56,4.82,6,8.39,10.64,12.14l21.47,17.38,1.91-27.13c1.44-20.39,3.78-53.52,6.76-89.89.78.27,1.57.52,2.37.74,6.3,12.49,12.37,17.08,22.26,21.1l25.6,10.41-6.04-26.53Z"/>
  <g>
    <path d="M538.33,299.03l-11.41-2.2c.04-.7.25-2.6.28-3.3.26-.85,1.69-3.09,1.99-3.67l11.54,4.78-2.41,4.4Z"/>
    <path d="M511.69,225.92c2.49,3.8,3.89,7.28,6.21,14.8,5,16.21,4.9,20.82,6.12,20.82,3.59,0,10.11-32,1.12-36.84-2.11-1.14-4.62-.52-5.9-.11.09-.41,1-4.06,4.05-5.09,1.7-.57,3.23-.06,4.32.33,1.98.7,3.5,1.91,4.65,3.17,1.68,1.85,2.14,4.32,2.47,6.79.24,1.83.33,6.84,0,11.94-1.13,17.98-3.84,20.83-8.95,51.34-1.19,7.09-3.2,17.8-7.67,32.01,0,0-7.79,30.94-15.53,32.24-.79.13-3.32-.18-3.32-.18,0,0,3.2-4.11,6.32-10.9,1.48-3.22,4.58-9.7,7.92-23.04,2.11-8.45,7.26-27.17,5.51-49.26-.55-7-1.52-18.17-6.49-31.9-3.93-10.83-9.18-19.65-13.13-25.4,0,0,.67-.56,1.16-.8,2.27-1.11,7.87,5.11,11.14,10.08Z"/>
    <path d="M433.63,214.75c18.79-41.49,35.41-74.61,76.97-81.19,10.51-1.66,33.88-11.01,33.88-11.01,24.29,15.44,10.23,85.35-17.21,66.84-10.42-7.03-41.14-1.58-41.14-1.58,7.24-6.09,17.62-10.69,31.34-14.41,8.18,3.94,22.72.36,24.87-9.3,2.25-10.1-.16-20.54-5.83-20.44-6.91.11-16,1.62-19.61,9.57-2.56,5.65-2.82,10.49.46,15.45,1.42,1.31,11,4.61,17.16-1.06,5.16-4.73,6.29-12.77,2.06-16.63-2.31-2.28-6.14-2.3-9.2-.14-1.91,1.55-3.44,3.81-3.24,6.31.39,3.05,3.65,3.77,6.14,1.52,1.35,2.27-2.1,4.13-4.18,4.13-.22,0-.44-.01-.66-.04-3.77-.63-4.93-4.7-3.79-8.44,1.33-4.37,5.35-7.31,9.37-7.91,8.24-1.04,12.6,7.47,9.44,15.92-1.93,5.14-6.11,9.2-11.86,10.55-2.56.6-7.4.28-11-.53-30.16,7.24-50.67,15.34-83.96,42.39Z"/>
    <path d="M541.55,299.6l-8.93.1v-3.82c.52-1.97.95-4.37,1.13-6.1l9.66,5.83c-.6,2.47-1.02,3.12-1.87,3.99Z"/>
    <path d="M617.41,255.27c2.75,2.28,4.13,5.82,3.67,9.36-11.63,55.56-21.45,191.46-26,255.92-6.85-5.54-10.58-8.14-12.12-34.04-1.97-45.09,2.9-101.66,14.74-142.57-14.77,40.2-17.26,105.17-15.86,162.7-13.1-6.93-23.32-32.5-21.72-60.35-.09-45.11,13.46-101.92,28.91-147.51-27.61,75.18-36.09,155.66-26.58,189.75-7.68-3.17-20.42-14.91-25.83-48.54-1.91-36.09,2.47-118.42,29.9-177.36-8.07-5.76-41-72.16-41-72.16,1.99,3.59,20.16,6.59,25.07-5.78,17.93,25.72,43.61,51.29,66.81,70.58Z"/>
    <path d="M625.6,419.59c-6.06-18.39-11.49-36.41-15.92-53.86-1.39,14.06-2.71,28.43-3.94,42.6,5.73,6.49,12.48,9.82,19.87,11.26Z"/>
    <path d="M624.89,411.47c8.98,24.35,13.31,25.75,21.47,29.07-7.55-33.14-19.43-85.63-29.73-136.16-2.27,17.05-4.45,36.39-6.47,56.49,4.22,17.76,9.26,35.05,14.72,50.6Z"/>
    <path d="M565.59,262.88c-9.32,9.82-19.38,20.87-20.98,28.32-1.78-1.98-13.64-15.9-13.64-15.9,4.85-22.41,9.64-43.46,7.21-56.1.39,1.77,20.36,39.18,27.4,43.68Z"/>
    <path d="M534.93,430.13c-5.05,30.84-33.43,46.72-69.76,79.09,0,0-5.7-17.36.91-28.24,20.99-19.27,40.95-39.64,55.96-60.32-13.98,19.07-30.88,34.79-57.9,60.1,0,0-3.49-18.49,2.89-28.28,18.75-21.47,39.56-45.26,54.7-61.01.19-.22-31.26,31.99-55.23,59.52-.36-1.31-.89-3.52-1.12-6.28-.91-10.82,4.01-19.12,6.38-24.46,5.53-12.43,43.97-50.09,54.51-61.48-2.2,2.53-44.86,42.95-54.72,58.75-1.34-2.76,1.82-15.48,2.63-15.89,0,0,18.17-28.84,31.9-44.32,7.99-6.41,13.51-33.74,13.51-33.74,0,0,15.64-19.92,22.38-23.28,1.08-1.24,1.98-3.69,2.32-5.19,3.03-13.36,15.41-24.45,21.03-31.48-7.7,17.22-31.18,78.17-30.39,166.52ZM522.2,420.43c.51-.7,1.02-1.41,1.52-2.11-.5.71-1.01,1.41-1.52,2.11Z"/>
    <path d="M546.95,121.96c12.66,6.14,17.95,35.51,5.77,61.91,25.02,29.32,49.1,55.86,60.34,64.39l-16.39-96.29c-.4-2.37-1.86-4.44-3.96-5.61l-32.06-24.75c-1.16-.89-2.63-1.28-4.08-1.06l-9.61,1.43Z"/>
    <g>
      <path d="M303.56,299.03l11.41-2.2c-.04-.7-.25-2.6-.28-3.3-.26-.85-1.69-3.09-1.99-3.67l-11.54,4.78,2.41,4.4Z"/>
      <path d="M330.2,225.92c-2.49,3.8-3.89,7.28-6.21,14.8-5,16.21-4.9,20.82-6.12,20.82-3.59,0-10.11-32-1.12-36.84,2.11-1.14,4.62-.52,5.9-.11-.09-.41-1-4.06-4.05-5.09-1.7-.57-3.23-.06-4.32.33-1.98.7-3.5,1.91-4.65,3.17-1.68,1.85-2.14,4.32-2.47,6.79-.24,1.83-.33,6.84,0,11.94,1.13,17.98,3.84,20.83,8.95,51.34,1.19,7.09,3.2,17.8,7.67,32.01,0,0,7.79,30.94,15.53,32.24.79.13,3.27-.24,3.27-.24,0,0-3.15-4.05-6.27-10.84-1.48-3.22-4.58-9.7-7.92-23.04-2.11-8.45-7.26-27.17-5.51-49.26.55-7,1.52-18.17,6.49-31.9,3.93-10.83,9.18-19.65,13.13-25.4,0,0-.67-.56-1.16-.8-2.27-1.11-7.87,5.11-11.14,10.08Z"/>
      <path d="M408.26,214.75c-18.79-41.49-35.41-74.61-76.97-81.19-10.51-1.66-33.88-11.01-33.88-11.01-24.29,15.44-10.23,85.35,17.21,66.84,10.42-7.03,41.14-1.58,41.14-1.58-7.24-6.09-17.62-10.69-31.34-14.41-8.18,3.94-22.72.36-24.87-9.3-2.25-10.1.16-20.54,5.83-20.44,6.91.11,16,1.62,19.61,9.57,2.56,5.65,2.82,10.49-.46,15.45-1.42,1.31-11,4.61-17.16-1.06-5.16-4.73-6.29-12.77-2.06-16.63,2.31-2.28,6.14-2.3,9.2-.14,1.91,1.55,3.44,3.81,3.24,6.31-.39,3.05-3.65,3.77-6.14,1.52-1.35,2.27,2.1,4.13,4.18,4.13.22,0,.44-.01.66-.04,3.77-.63,4.93-4.7,3.79-8.44-1.33-4.37-5.35-7.31-9.37-7.91-8.24-1.04-12.6,7.47-9.44,15.92,1.93,5.14,6.11,9.2,11.86,10.55,2.56.6,7.4.28,11-.53,30.16,7.24,50.67,15.34,83.96,42.39Z"/>
      <path d="M300.34,299.6l8.93.1v-3.82c-.52-1.97-.95-4.37-1.13-6.1l-9.66,5.83c.6,2.47,1.02,3.12,1.87,3.99Z"/>
      <path d="M224.48,255.27c-2.75,2.28-4.13,5.82-3.67,9.36,11.63,55.56,21.45,191.46,26,255.92,6.85-5.54,10.58-8.14,12.12-34.04,1.97-45.09-2.9-101.66-14.74-142.57,14.77,40.2,17.26,105.17,15.86,162.7,13.1-6.93,23.32-32.5,21.72-60.35.09-45.11-13.46-101.92-28.91-147.51,27.61,75.18,36.09,155.66,26.58,189.75,7.68-3.17,20.42-14.91,25.83-48.54,1.91-36.09-2.47-118.42-29.9-177.36,8.07-5.76,41-72.16,41-72.16-1.99,3.59-20.16,6.59-25.07-5.78-17.93,25.72-43.61,51.29-66.81,70.58Z"/>
      <path d="M216.29,419.59c6.06-18.39,11.49-36.41,15.92-53.86,1.39,14.06,2.71,28.43,3.94,42.6-5.73,6.49-12.48,9.82-19.87,11.26Z"/>
      <path d="M217,411.47c-8.98,24.35-13.31,25.75-21.47,29.07,7.55-33.14,19.43-85.63,29.73-136.16,2.27,17.05,4.45,36.39,6.47,56.49-4.22,17.76-9.26,35.05-14.72,50.6Z"/>
      <path d="M276.3,262.88c9.32,9.82,19.38,20.87,20.98,28.32,1.78-1.98,13.64-15.9,13.64-15.9-4.85-22.41-9.64-43.46-7.21-56.1-.39,1.77-20.36,39.18-27.4,43.68Z"/>
      <path d="M306.96,430.13c5.05,30.84,33.43,46.72,69.76,79.09,0,0,5.7-17.36-.91-28.24-20.99-19.27-40.95-39.64-55.96-60.32,13.98,19.07,30.88,34.79,57.9,60.1,0,0,3.49-18.49-2.89-28.28-18.75-21.47-39.56-45.26-54.7-61.01-.19-.22,31.26,31.99,55.23,59.52.36-1.31.89-3.52,1.12-6.28.91-10.82-4.01-19.12-6.38-24.46-5.53-12.43-43.97-50.09-54.51-61.48,2.2,2.53,44.86,42.95,54.72,58.75,1.34-2.76-1.82-15.48-2.63-15.89,0,0-18.17-28.84-31.9-44.32-7.99-6.41-13.51-33.74-13.51-33.74,0,0-15.64-19.92-22.38-23.28-1.08-1.24-1.98-3.69-2.32-5.19-3.03-13.36-15.41-24.45-21.03-31.48,7.7,17.22,31.18,78.17,30.39,166.52ZM319.69,420.43c-.51-.7-1.02-1.41-1.52-2.11.5.71,1.01,1.41,1.52,2.11Z"/>
      <path d="M294.94,121.96c-12.66,6.14-17.95,35.51-5.77,61.91-25.02,29.32-49.1,55.86-60.34,64.39l16.39-96.29c.4-2.37,1.86-4.44,3.96-5.61l32.06-24.75c1.16-.89,2.63-1.28,4.08-1.06l9.61,1.43Z"/>
    </g>
    <path d="M416.82,398.55c1.51,1.16,2.41,3.15,2.38,5.26-2.69,33.47.08,114.1,1.45,152.34-3.76-2.81-6.51-4-8.02-19.23-2.75-27.71-8.02-104.64-7.24-111.59-2.78,24.63,3.85,89.75,7.82,123.52-6.98-3.21-13.57-17.58-14.34-34.07-2.61-26.54-8.41-80.13-8.34-108.56-.1,46.38,5.2,113.83,11.91,133.27-4.04-1.36-11.11-7.42-15.74-26.85-3.01-21.11-12.02-108.42-12.02-108.42l-35.88-45.8s.97.8,4.2-.23c10.47,13.94,61.07,30.55,73.83,40.37Z"/>
    <path d="M424.25,398.55c-1.51,1.16-2.41,3.15-2.38,5.26,2.69,33.47-.08,114.1-1.45,152.34,3.76-2.81,6.51-4,8.02-19.23,2.75-27.71,8.02-104.64,7.24-111.59,2.78,24.63-3.85,89.75-7.82,123.52,6.98-3.21,13.57-17.58,14.34-34.07,2.61-26.54,8.41-80.13,8.34-108.56.1,46.38-5.2,113.83-11.91,133.27,4.04-1.36,11.11-7.42,15.74-26.85,3.01-21.11,12.02-108.42,12.02-108.42l35.88-45.8s-.97.8-4.2-.23c-10.47,13.94-61.07,30.55-73.83,40.37Z"/>
    <path d="M406.53,43.63l1.44,160.4c-15.88-34.56-34.15-67.96-76.02-74.6-6.5-1.02-18.49-5.27-26.1-8.11l-23.63-3.22h-.04l60.83-50.34c3.93-3.24,8.42-5.73,13.25-7.36l47.62-15.97c.88-.29,1.76-.56,2.65-.82Z"/>
    <path d="M421.3,41.58c4.14.08,8.25.61,12.31,1.59l-1.38,164.46-11.24,8.09-11.37-8.17-1.34-164.37c4.1-.98,8.21-1.53,12.39-1.59v-.02h.63v.02Z"/>
    <path d="M559.7,118.1h-.04l-23.63,3.22c-7.59,2.84-19.6,7.08-26.08,8.11-41.92,6.65-60.14,40.08-76.06,74.66l1.48-160.44c.9.23,1.76.5,2.63.79l47.62,15.97c4.83,1.63,9.32,4.12,13.25,7.36l60.83,50.34Z"/>
    <g>
      <polygon points="490.31 274.19 492.18 286.24 478.65 302.39 452.2 292.98 452.2 283.94 490.31 274.19"/>
      <g>
        <polygon points="340.32 265.45 337.3 284.96 359.22 311.14 402.06 295.89 402.06 281.23 340.32 265.45"/>
        <path d="M501.55,265.45l-61.74,15.79v14.66l42.85,15.24,21.92-26.17-3.02-19.51ZM480.21,305.8l-32.83-11.68v-11.23l47.31-12.1,2.32,14.95-16.79,20.06Z"/>
        <rect x="297.16" y="259.81" width="49.62" height="5.84" transform="translate(87.71 -80.51) rotate(16.47)"/>
        <rect x="307.95" y="313.06" width="61.03" height="5.84" transform="translate(-91.31 143.65) rotate(-21.18)"/>
        <rect x="394.83" y="261.99" width="169.57" height="5.84" transform="translate(-49.34 122.02) rotate(-13.8)"/>
      </g>
    </g>
    <path d="M432.23,207.63l-11.24,8.09-11.37-8.17-1.34-164.37-.02-2.38c8.36-2.19,16.8-2.26,25.37,0l-.02,2.38-1.38,164.46Z"/>
    <path d="M433.63,40.79l-.02,2.38-1.38,164.46-11.24,8.09-11.37-8.17-1.34-164.37-.02-2.38c8.36-2.19,16.8-2.26,25.37,0Z"/>
  </g>
</svg>